<svg xmlns="http://www.w3.org/2000/svg" xml:space="preserve" width="63.236" height="63.236" style="shape-rendering:geometricPrecision;text-rendering:geometricPrecision;image-rendering:optimizeQuality;fill-rule:evenodd;clip-rule:evenodd" viewBox="0 0 47.83 47.83"><defs><style>.fil1{fill:#272343;fill-rule:nonzero}</style></defs><g id="Capa_x0020_1"><g id="_2601147827376"><path d="M39.29 47.83H8.54C3.82 47.83 0 44.01 0 39.29V8.54C0 3.82 3.82 0 8.54 0h30.75c4.72 0 8.54 3.82 8.54 8.54v30.75c0 4.72-3.82 8.54-8.54 8.54z" style="fill:#44d585;fill-rule:nonzero"></path><path d="M13.77 29.17v-4.46h4.12c.72.01 1.28.1 1.67.28.71.32 1.07.92 1.07 1.79 0 1.03-.37 1.73-1.1 2.09-.4.2-.97.3-1.7.3h-4.07zm0-10.93h3.64c.8 0 1.46.09 1.98.26.6.25.9.76.9 1.54 0 .7-.23 1.2-.68 1.47-.45.28-1.04.41-1.77.41h-4.07v-3.69zm6.57 13.61c.73-.15 1.36-.43 1.89-.84.47-.36.87-.8 1.19-1.32.5-.79.75-1.68.75-2.67 0-.96-.22-1.78-.65-2.45-.44-.67-1.08-1.17-1.93-1.48.56-.29.99-.6 1.28-.95.52-.62.78-1.44.78-2.46 0-.99-.26-1.84-.77-2.56-.85-1.16-2.3-1.75-4.34-1.78h-8.09v16.75H18c.85 0 1.64-.08 2.37-.23zM29.32 22.74c.46-.47 1.1-.71 1.93-.71.76 0 1.41.22 1.92.67.52.44.8 1.1.86 1.96h-5.58c.12-.81.41-1.44.86-1.92zm-2.31 8.23c1.26 1.02 2.71 1.52 4.36 1.52 2 0 3.55-.6 4.66-1.81.71-.76 1.11-1.5 1.2-2.24h-3.31c-.19.36-.41.65-.67.85-.46.38-1.06.57-1.8.57-.7 0-1.29-.16-1.78-.47-.81-.5-1.25-1.37-1.3-2.61h9.02c.02-1.07-.02-1.89-.11-2.46-.15-.97-.48-1.82-.99-2.56a5.09 5.09 0 0 0-2.14-1.83c-.86-.39-1.83-.58-2.91-.58-1.81 0-3.29.57-4.43 1.72-1.14 1.14-1.71 2.79-1.71 4.93 0 2.29.63 3.94 1.89 4.96zM34.67 16.29h-7.28v1.69h7.28v-1.69z" class="fil1"></path></g></g></svg>