<svg xmlns="http://www.w3.org/2000/svg" xml:space="preserve" width="63.236" height="63.236" style="shape-rendering:geometricPrecision;text-rendering:geometricPrecision;image-rendering:optimizeQuality;fill-rule:evenodd;clip-rule:evenodd" viewBox="0 0 40.2 40.19"><path d="M33.02 40.19H7.18A7.18 7.18 0 0 1 0 33.01V7.17A7.18 7.18 0 0 1 7.18-.01h25.84a7.18 7.18 0 0 1 7.18 7.18v25.84a7.18 7.18 0 0 1-7.18 7.18z" style="fill:#44d585;fill-rule:nonzero"></path><path d="M17.04 32.24h4.89V19.99h3.41l.36-4.1h-3.78v-2.34c0-.97.19-1.35 1.13-1.35h2.65V7.94h-3.39c-3.64 0-5.28 1.6-5.28 4.67v3.27h-2.54v4.15h2.54v12.2z" style="fill:#272343;fill-rule:nonzero"></path></svg>