<svg xmlns="http://www.w3.org/2000/svg" xml:space="preserve" width="63.236" height="63.236" style="shape-rendering:geometricPrecision;text-rendering:geometricPrecision;image-rendering:optimizeQuality;fill-rule:evenodd;clip-rule:evenodd" viewBox="0 0 42.45 42.45"><defs><style>.fil1{fill:#272343;fill-rule:nonzero}</style></defs><g id="Capa_x0020_1"><path d="M34.87 42.45H7.58C3.39 42.45 0 39.06 0 34.87V7.58C0 3.39 3.39 0 7.58 0h27.29c4.19 0 7.58 3.39 7.58 7.58v27.29c0 4.19-3.39 7.58-7.58 7.58z" style="fill:#44d585;fill-rule:nonzero"></path><path d="M21.23 9.59c-3.16 0-3.56.01-4.8.07-1.24.06-2.08.25-2.82.54-.77.3-1.41.7-2.06 1.34-.65.65-1.05 1.3-1.34 2.06-.29.74-.48 1.59-.54 2.82-.06 1.24-.07 1.64-.07 4.8s.01 3.56.07 4.8c.06 1.24.25 2.08.54 2.83.3.77.7 1.41 1.34 2.06.65.65 1.3 1.04 2.06 1.34.74.29 1.59.48 2.82.54 1.24.06 1.64.07 4.8.07s3.56-.01 4.8-.07c1.24-.06 2.08-.25 2.82-.54.77-.3 1.41-.7 2.06-1.34.65-.65 1.05-1.3 1.34-2.06.29-.74.48-1.59.54-2.83.06-1.24.07-1.64.07-4.8s-.01-3.56-.07-4.8c-.06-1.24-.25-2.08-.54-2.82-.3-.77-.7-1.41-1.34-2.06-.65-.65-1.3-1.04-2.06-1.34-.74-.29-1.59-.48-2.82-.54-1.24-.06-1.64-.07-4.8-.07zm0 2.1c3.11 0 3.48.01 4.7.07 1.13.05 1.75.24 2.16.4.54.21.93.46 1.34.87.41.41.66.79.87 1.34.16.41.35 1.03.4 2.16.06 1.23.07 1.59.07 4.7 0 3.11-.01 3.48-.07 4.7-.05 1.13-.24 1.75-.4 2.16-.21.54-.46.93-.87 1.34-.41.41-.79.66-1.34.87-.41.16-1.03.35-2.16.4-1.23.06-1.59.07-4.7.07-3.11 0-3.48-.01-4.7-.07-1.13-.05-1.75-.24-2.16-.4-.54-.21-.93-.46-1.34-.87-.41-.41-.66-.79-.87-1.34-.16-.41-.35-1.03-.4-2.16-.06-1.23-.07-1.6-.07-4.7 0-3.11.01-3.48.07-4.7.05-1.13.24-1.75.4-2.16.21-.54.46-.93.87-1.34.41-.41.79-.66 1.34-.87.41-.16 1.03-.35 2.16-.4 1.23-.06 1.6-.07 4.7-.07z" class="fil1"></path><path d="M21.23 25.11c-2.14 0-3.88-1.74-3.88-3.88 0-2.14 1.74-3.88 3.88-3.88 2.14 0 3.88 1.74 3.88 3.88 0 2.14-1.74 3.88-3.88 3.88zm0-9.86c-3.3 0-5.98 2.68-5.98 5.98 0 3.3 2.68 5.98 5.98 5.98 3.3 0 5.98-2.68 5.98-5.98 0-3.3-2.68-5.98-5.98-5.98zM28.84 15.01c0 .77-.63 1.4-1.4 1.4-.77 0-1.4-.63-1.4-1.4 0-.77.63-1.4 1.4-1.4.77 0 1.4.63 1.4 1.4z" class="fil1"></path></g></svg>