<svg xmlns="http://www.w3.org/2000/svg" xml:space="preserve" width="63.236" height="63.236" style="shape-rendering:geometricPrecision;text-rendering:geometricPrecision;image-rendering:optimizeQuality;fill-rule:evenodd;clip-rule:evenodd" viewBox="0 0 51.06 51.06"><defs><style>.fil1{fill:#272343;fill-rule:nonzero}</style></defs><g id="Capa_x0020_1"><g id="_2600784615520"><path d="M41.94 51.06H9.12C4.08 51.06 0 46.98 0 41.94V9.12C0 4.09 4.08 0 9.12 0h32.82c5.03 0 9.12 4.08 9.12 9.12v32.82c0 5.04-4.08 9.12-9.12 9.12z" style="fill:#44d585;fill-rule:nonzero"></path><path d="M13.95 36.91h5.28V19.84h-5.28v17.07zM16.57 17.6c1.73 0 3.12-1.41 3.12-3.15s-1.4-3.15-3.12-3.15c-1.73 0-3.13 1.41-3.13 3.15s1.4 3.15 3.13 3.15zM27.68 27.95c0-2.4 1.1-3.83 3.22-3.83 1.94 0 2.88 1.37 2.88 3.83v8.96h5.26V26.1c0-4.57-2.59-6.78-6.21-6.78s-5.14 2.82-5.14 2.82v-2.3h-5.07v17.07h5.07v-8.96z" class="fil1"></path></g></g></svg>