<svg xmlns="http://www.w3.org/2000/svg" xml:space="preserve" width="63.236" height="63.236" style="shape-rendering:geometricPrecision;text-rendering:geometricPrecision;image-rendering:optimizeQuality;fill-rule:evenodd;clip-rule:evenodd" viewBox="0 0 44.98 44.98"><defs><style>.fil1{fill:#272343}</style></defs><g id="Capa_x0020_1"><g id="_2601153588640"><path d="M36.95 44.98H8.03A8.03 8.03 0 0 1 0 36.95V8.03C0 3.59 3.6 0 8.03 0h28.92c4.44 0 8.03 3.6 8.03 8.03v28.92c0 4.44-3.6 8.03-8.03 8.03z" style="fill:#44d585;fill-rule:nonzero"></path><path d="M22.71 32.28c-2.07 0-3.99-.61-5.6-1.67l-3.91 1.25 1.27-3.75a10 10 0 0 1-1.89-6.91c.5-5.11 4.85-9.12 10.13-9.12 5.35 0 9.74 4.11 10.15 9.32.02.26.03.52.03.79 0 5.57-4.57 10.1-10.18 10.1zm12.11-10.41c-.16-6.5-5.52-11.71-12.11-11.71-6.51 0-11.82 5.1-12.1 11.49-.01.18-.01.35-.01.53 0 2.27.63 4.39 1.73 6.21l-2.18 6.45 6.71-2.13c1.74.95 3.73 1.5 5.85 1.5 6.69 0 12.11-5.38 12.11-12.02 0-.1 0-.2-.01-.31z" class="fil1"></path><path d="M28.27 24.6c-.3-.15-1.76-.86-2.03-.96-.27-.1-.47-.15-.67.15-.2.29-.77.96-.94 1.15-.18.2-.35.22-.65.07-.29-.15-1.25-.45-2.39-1.46-.88-.78-1.48-1.74-1.65-2.04-.17-.29-.02-.45.13-.6.14-.14.29-.35.45-.52.04-.05.07-.1.11-.14.07-.11.12-.21.19-.35.1-.2.05-.37-.02-.52-.07-.15-.67-1.6-.92-2.19-.24-.59-.49-.49-.67-.49-.17 0-.37-.03-.57-.03-.2 0-.52.07-.79.37s-1.04 1.01-1.04 2.46c0 .34.06.68.15 1 .3 1.04.95 1.89 1.06 2.04.15.19 2.05 3.27 5.07 4.45 3.02 1.17 3.02.78 3.57.73.54-.05 1.76-.71 2-1.4.25-.69.25-1.28.18-1.4-.07-.12-.27-.19-.57-.34z" class="fil1"></path></g></g></svg>