<svg xmlns="http://www.w3.org/2000/svg" xml:space="preserve" width="329.158" height="76.698" style="shape-rendering:geometricPrecision;text-rendering:geometricPrecision;image-rendering:optimizeQuality;fill-rule:evenodd;clip-rule:evenodd" viewBox="0 0 2251.35 524.59"><defs><style>.fil0{fill:#fff;fill-rule:nonzero}</style></defs><g id="Capa_x0020_1"><g id="_1632003991344"><path d="M527.36 274.77c-6.04 58.74-35.6 113.03-82.13 149.39-50.84 39.75-115.18 58.98-186.54 41.33-90.43-23.71-161.51-110.29-127.15-208.45 15-35.3 41.76-65.6 84-74.62 11.16-1.86 21.8-1.47 31.74.84-23.69-22.82-63.92-13.61-91.72 3.05-49.61 27.91-74.41 86.82-68.21 148.84 9.3 58.91 40.31 108.53 93.01 145.73 40.32 27.91 83.73 40.31 136.45 40.31-2.62.58-5.56 1.08-8.77 1.51-80.87 10.76-161.83-24.71-208.1-91.93-27.26-39.58-42.06-87.73-37.4-142.13 9.3-93.03 83.71-176.74 186.04-158.14 37.21 9.3 71.32 31.01 86.82 71.32 7.41 22.23 4.91 43.76-4.48 62.54 1.12-.02 2.31-.12 3.56-.34 37.07-16.11 35.15-63.5 21.62-97.03-19.8-53.36-74.13-87.07-136.35-90.62-59.64-.02-113.49 22.87-158.48 69.12C27.41 180.93 8.39 221.88.15 273.95c-.17-2.67-.2-5.66-.12-8.89 2-81.56 49.7-155.99 123.3-191.19 43.36-20.74 93.24-27.84 146.23-14.74 90.42 23.72 161.5 110.3 127.15 208.46-15 35.29-41.77 65.6-84 74.61-11.16 1.86-21.8 1.46-31.74-.84 23.69 22.76 63.9 13.55 91.66-3.11 49.61-27.9 74.41-86.82 68.21-148.82-9.3-58.92-40.31-108.53-93.01-145.75-40.32-27.9-83.73-40.31-136.45-40.31C218.49 1.8 226.6.82 235.32.34c58.95-3.22 117.19 17.52 160.38 57.78 47.19 44.02 76.23 104.55 69.94 177.81-9.3 93.02-83.71 176.75-186.04 158.14-37.22-9.3-71.32-31.01-86.82-71.32-7.41-22.21-4.91-43.71 4.45-62.47-1.1.02-2.25.12-3.47.33-37.08 16.12-35.16 63.51-21.62 97.04 19.82 53.37 74.14 87.07 136.35 90.64 59.66.01 113.49-22.87 158.47-69.12 33.86-35.46 52.89-76.39 61.12-128.47.46 7.27.16 15.43-.73 24.1zM674.09 122.25l-25.02 58.37h50.24l-25.23-58.37zm76.51 116.32h-27.1l-14.81-35.23h-69l-15.01 35.23h-26.27L662.62 91.6h23.77l64.21 146.97zM903.2 92.64h25.43v145.93H907.2l-80.3-103.81v103.81h-25.43V92.64h23.72l78.02 100.9V92.64zM1093.41 145.83c-2.44-6.07-5.86-11.34-10.24-15.81-4.39-4.46-9.72-7.95-15.99-10.47-6.27-2.51-13.24-3.77-20.9-3.77h-28.84v99.65h28.84c7.66 0 14.63-1.21 20.9-3.66 6.27-2.44 11.6-5.86 15.99-10.26 4.39-4.4 7.8-9.63 10.24-15.7 2.44-6.07 3.66-12.73 3.66-19.99 0-7.26-1.22-13.92-3.66-19.99zm24.92 48.45c-3.75 8.97-9.07 16.71-15.95 23.24-6.88 6.54-15.08 11.68-24.6 15.43-9.52 3.75-19.98 5.63-31.37 5.63H992V92.65h54.41c11.39 0 21.85 1.84 31.37 5.52 9.52 3.68 17.72 8.79 24.6 15.32 6.88 6.53 12.19 14.25 15.95 23.14 3.76 8.9 5.63 18.48 5.63 28.77s-1.87 19.91-5.63 28.87zM1266.11 121.96c-5.3-4.12-12.75-6.18-22.37-6.18h-37.43v49.2h37.64c9.2 0 16.52-2.23 21.96-6.7 5.44-4.47 8.16-10.47 8.16-18.01 0-8.09-2.65-14.2-7.95-18.32zm8.37 116.61-35.97-50.86h-32.2v50.86h-25.43V92.64h65.05c8.33 0 15.87 1.08 22.61 3.23s12.44 5.21 17.1 9.17c4.66 3.96 8.23 8.83 10.74 14.59 2.5 5.77 3.76 12.2 3.76 19.29 0 6.12-.87 11.57-2.61 16.36-1.74 4.8-4.14 9.04-7.19 12.72-3.06 3.68-6.71 6.81-10.95 9.38-4.24 2.57-8.93 4.55-14.07 5.94l39.4 55.24h-30.22zM1418.32 80.55l22.1-34.19 22.93 10.22-25.43 23.97h-19.6zm54.72 65.14c-2.44-6.32-5.84-11.84-10.22-16.57-4.38-4.72-9.62-8.47-15.74-11.26-6.12-2.78-12.79-4.17-20.01-4.17-7.23 0-13.86 1.36-19.91 4.07-6.04 2.71-11.22 6.39-15.53 11.05-4.31 4.66-7.68 10.14-10.11 16.47-2.43 6.33-3.65 13.03-3.65 20.12 0 7.09 1.21 13.79 3.65 20.11 2.43 6.33 5.84 11.85 10.21 16.58 4.38 4.73 9.62 8.48 15.74 11.26 6.11 2.78 12.79 4.17 20.01 4.17 7.23 0 13.86-1.35 19.91-4.07 6.05-2.71 11.22-6.39 15.53-11.05 4.31-4.66 7.68-10.14 10.11-16.47 2.43-6.32 3.65-13.03 3.65-20.12 0-7.09-1.22-13.79-3.65-20.12zm24.91 48.89c-3.75 9.17-9.03 17.2-15.84 24.08-6.81 6.88-14.87 12.34-24.18 16.37-9.31 4.03-19.6 6.05-30.85 6.05-11.26 0-21.54-1.98-30.86-5.94-9.31-3.96-17.3-9.34-23.97-16.16-6.67-6.81-11.88-14.8-15.64-23.97-3.75-9.17-5.63-18.9-5.63-29.19 0-10.28 1.88-20.01 5.63-29.19 3.75-9.17 9.03-17.2 15.84-24.08 6.81-6.88 14.87-12.33 24.18-16.37 9.31-4.03 19.6-6.04 30.85-6.04 11.26 0 21.54 1.98 30.85 5.94 9.31 3.96 17.3 9.35 23.98 16.16 6.67 6.81 11.88 14.8 15.63 23.97 3.75 9.17 5.63 18.9 5.63 29.19 0 10.29-1.88 20.01-5.63 29.19zM1632.41 202.71h-.83l-45.66-68.38v104.23h-25.43V92.63h27.31l44.41 69 44.4-69h27.31v145.93h-25.43V133.91l-46.08 68.79zM1875.28 115.78h-82.55v37.53h73.17v23.14h-73.17v38.98h83.59v23.14h-109.03V92.64h107.99v23.14zM2034.23 145.83c-2.44-6.07-5.86-11.34-10.24-15.81-4.39-4.46-9.72-7.95-15.99-10.47-6.28-2.51-13.24-3.77-20.91-3.77h-28.84v99.65h28.84c7.66 0 14.63-1.21 20.91-3.66 6.27-2.44 11.6-5.86 15.99-10.26 4.39-4.4 7.8-9.63 10.24-15.7 2.44-6.07 3.66-12.73 3.66-19.99 0-7.26-1.22-13.92-3.66-19.99zm24.92 48.45c-3.75 8.97-9.07 16.71-15.95 23.24-6.88 6.54-15.08 11.68-24.6 15.43-9.52 3.75-19.98 5.63-31.37 5.63h-54.41V92.65h54.41c11.39 0 21.85 1.84 31.37 5.52 9.51 3.68 17.72 8.79 24.6 15.32 6.88 6.53 12.2 14.25 15.95 23.14 3.75 8.9 5.63 18.48 5.63 28.77s-1.87 19.91-5.63 28.87zM2174.84 122.25l-25.01 58.37h50.24l-25.23-58.37zm76.51 116.32h-27.1l-14.8-35.23h-69l-15.01 35.23h-26.26l64.21-146.97h23.77l64.21 146.97zM665.63 352.89h-50.89v28.49h45.52v8.58h-45.52v29.2h51.48v8.58h-60.9v-83.42h60.31v8.58zM751.9 427.73h-10.61l-19.07-25.15-19.18 25.15h-10.25l24.19-31.34-23.24-30.27h10.49l18.24 23.83 18.23-23.83h10.25l-23.36 30.03 24.31 31.58zM832.64 387.14c-1.15-2.92-2.72-5.43-4.7-7.53a20.485 20.485 0 0 0-6.91-4.8c-2.62-1.1-5.41-1.66-8.34-1.66-2.86 0-5.62.57-8.28 1.72a23.385 23.385 0 0 0-7.15 4.81c-2.11 2.06-3.77 4.54-5 7.47-1.23 2.93-1.85 6.17-1.85 9.72 0 3.56.62 6.82 1.85 9.78 1.23 2.97 2.9 5.48 5 7.53 2.1 2.06 4.49 3.66 7.15 4.8 2.66 1.15 5.42 1.72 8.28 1.72 2.93 0 5.74-.53 8.4-1.6s4.96-2.61 6.91-4.62c1.94-2.01 3.5-4.51 4.65-7.47 1.15-2.97 1.73-6.3 1.73-10.02 0-3.64-.58-6.92-1.73-9.84zm8.64 23.31c-1.67 3.97-3.87 7.33-6.62 10.07-2.74 2.74-5.88 4.85-9.41 6.32-3.54 1.47-7.17 2.21-10.9 2.21-2.86 0-5.48-.36-7.87-1.07-2.38-.72-4.53-1.67-6.43-2.86a27.599 27.599 0 0 1-5.19-4.17 36.92 36.92 0 0 1-4.11-5.01v30.86h-9.18v-80.68h9.18v12.39c1.27-1.83 2.68-3.58 4.23-5.24 1.55-1.67 3.28-3.12 5.19-4.35 1.91-1.23 4.03-2.22 6.37-2.98 2.34-.75 4.95-1.13 7.8-1.13 3.65 0 7.25.72 10.79 2.15 3.53 1.43 6.69 3.51 9.47 6.25 2.78 2.74 5.01 6.1 6.68 10.07 1.67 3.98 2.5 8.5 2.5 13.59 0 5.08-.83 9.61-2.5 13.58zM884.88 399.96c-3.09 2.31-4.63 5.44-4.63 9.41 0 1.99.41 3.74 1.25 5.25.83 1.51 1.96 2.8 3.38 3.87 1.42 1.07 3.07 1.89 4.93 2.45 1.86.55 3.82.83 5.88.83 2.85 0 5.52-.42 8.01-1.25 2.49-.83 4.67-1.99 6.53-3.46 1.86-1.47 3.33-3.22 4.4-5.24 1.07-2.03 1.6-4.27 1.6-6.74v-5.96c-2.3-.64-4.93-1.23-7.9-1.79-2.97-.56-6.36-.83-10.15-.83-5.78 0-10.22 1.15-13.3 3.45zm2.93-25.32c-2.98.83-5.9 1.93-8.76 3.28l-2.74-7.51c3.41-1.58 6.87-2.84 10.37-3.75 3.49-.91 7.51-1.37 12.04-1.37 8.42 0 14.9 2.09 19.42 6.25 4.53 4.17 6.8 10.35 6.8 18.53v37.66h-8.82v-9.29c-2.14 2.78-5.03 5.24-8.64 7.39-3.62 2.15-8.16 3.22-13.65 3.22-2.86 0-5.66-.4-8.4-1.19-2.74-.79-5.2-2.01-7.39-3.64a18.479 18.479 0 0 1-5.24-6.02c-1.31-2.38-1.97-5.2-1.97-8.46 0-3.26.63-6.14 1.91-8.64 1.27-2.5 3.08-4.59 5.42-6.25 2.34-1.67 5.12-2.94 8.34-3.82 3.22-.87 6.78-1.31 10.67-1.31 3.97 0 7.43.24 10.37.72 2.94.48 5.8 1.11 8.58 1.91v-2.15c0-5.56-1.61-9.75-4.83-12.57-3.22-2.82-7.72-4.23-13.53-4.23-3.65 0-6.97.42-9.95 1.25zM968.43 427.73h-9.18v-61.61h9.18v10.73c2.06-3.34 4.77-6.18 8.1-8.52 3.34-2.34 7.66-3.52 12.99-3.52 3.73 0 7.05.6 9.95 1.79 2.9 1.19 5.36 2.88 7.39 5.07 2.02 2.18 3.57 4.79 4.65 7.8 1.07 3.02 1.61 6.36 1.61 10.01v38.25h-9.18v-35.99c0-5.72-1.47-10.25-4.41-13.58-2.94-3.33-7.15-5-12.63-5-2.62 0-5.06.46-7.33 1.37-2.27.92-4.23 2.23-5.9 3.93-1.66 1.71-2.96 3.76-3.87 6.14-.91 2.38-1.37 5-1.37 7.87v35.27zM1088.02 418.26c-1.15 2.26-2.7 4.19-4.65 5.78-1.95 1.59-4.25 2.8-6.91 3.63-2.67.83-5.55 1.25-8.64 1.25-4.45 0-8.94-.82-13.47-2.45-4.52-1.63-8.54-3.83-12.03-6.61l4.65-6.55c3.33 2.54 6.81 4.49 10.43 5.84 3.61 1.35 7.25 2.03 10.9 2.03 3.74 0 6.79-.87 9.18-2.62 2.38-1.75 3.57-4.13 3.57-7.15v-.24c0-1.51-.42-2.82-1.25-3.93-.83-1.11-1.97-2.09-3.39-2.92-1.43-.83-3.08-1.57-4.95-2.21-1.87-.63-3.79-1.23-5.78-1.79-2.38-.71-4.79-1.49-7.21-2.32-2.42-.83-4.61-1.88-6.55-3.16a16.036 16.036 0 0 1-4.77-4.76c-1.23-1.91-1.85-4.29-1.85-7.15v-.24c0-2.62.52-5.02 1.55-7.21 1.03-2.18 2.48-4.05 4.35-5.6 1.86-1.55 4.09-2.74 6.67-3.58 2.58-.84 5.38-1.25 8.4-1.25 3.82 0 7.66.62 11.56 1.85 3.89 1.23 7.43 2.88 10.61 4.95l-4.17 6.91a41.468 41.468 0 0 0-9-4.35c-3.14-1.07-6.21-1.61-9.23-1.61-3.66 0-6.56.86-8.7 2.56-2.15 1.71-3.22 3.84-3.22 6.38v.24c0 1.43.44 2.68 1.31 3.75.87 1.07 2.04 2.01 3.52 2.8 1.47.8 3.16 1.51 5.06 2.14 1.91.64 3.89 1.27 5.96 1.91 2.38.72 4.75 1.51 7.09 2.38 2.34.88 4.47 1.99 6.38 3.34 1.91 1.35 3.43 2.98 4.59 4.89 1.15 1.91 1.73 4.25 1.73 7.03v.24c0 2.94-.58 5.54-1.73 7.8zM1122.4 366.12h9.17v61.61h-9.17v-61.61zm-.59-23.6h10.49v10.13h-10.49v-10.13zM1192.35 356.82l11.32-17.28 9.54 4.41-13.47 12.87h-7.39zm24.6 30.83c-1.15-2.93-2.76-5.49-4.83-7.66-2.07-2.18-4.49-3.9-7.27-5.17-2.78-1.27-5.8-1.9-9.06-1.9-3.34 0-6.4.61-9.17 1.85-2.78 1.23-5.14 2.93-7.09 5.11-1.95 2.18-3.48 4.71-4.59 7.61-1.12 2.89-1.67 6-1.67 9.33s.58 6.46 1.73 9.39c1.15 2.93 2.74 5.47 4.77 7.61 2.03 2.14 4.43 3.84 7.21 5.11 2.78 1.27 5.8 1.9 9.06 1.9 3.34 0 6.39-.61 9.17-1.84 2.78-1.23 5.17-2.91 7.15-5.05 1.99-2.14 3.53-4.66 4.65-7.55 1.11-2.89 1.67-6 1.67-9.33s-.58-6.46-1.73-9.39zm8.7 21.67c-1.63 3.93-3.88 7.37-6.73 10.31-2.86 2.94-6.28 5.26-10.25 6.97-3.98 1.71-8.27 2.56-12.87 2.56-4.61 0-8.86-.85-12.75-2.56-3.9-1.71-7.27-4.01-10.13-6.91-2.86-2.9-5.09-6.29-6.67-10.19-1.59-3.89-2.38-8.02-2.38-12.39 0-4.37.79-8.52 2.38-12.45 1.59-3.93 3.82-7.37 6.67-10.31 2.86-2.94 6.25-5.26 10.19-6.97 3.93-1.71 8.24-2.56 12.93-2.56 4.6 0 8.88.86 12.81 2.56 3.93 1.71 7.33 4.01 10.19 6.91 2.87 2.9 5.09 6.3 6.68 10.19 1.59 3.9 2.39 8.03 2.39 12.4 0 4.37-.82 8.52-2.45 12.45zM1268.62 427.73h-9.18v-61.61h9.18v10.73c2.06-3.34 4.77-6.18 8.1-8.52s7.66-3.52 12.99-3.52c3.73 0 7.05.6 9.95 1.79 2.9 1.19 5.36 2.88 7.38 5.07 2.03 2.18 3.58 4.79 4.65 7.8 1.07 3.02 1.61 6.36 1.61 10.01v38.25h-9.18v-35.99c0-5.72-1.47-10.25-4.41-13.58-2.94-3.33-7.15-5-12.63-5-2.62 0-5.06.46-7.33 1.37-2.26.92-4.23 2.23-5.9 3.93-1.66 1.71-2.96 3.76-3.87 6.14-.91 2.38-1.37 5-1.37 7.87v35.27zM1450.24 344.07h7.75l22.88 69.71 23.84-69.48h9.89l-29.79 84.02h-7.98l-22.88-67.69-23 67.69h-7.87l-29.79-84.02h10.25l23.83 69.48 22.88-69.71zM1582.16 393.53c-.24-2.78-.81-5.44-1.72-7.98-.91-2.54-2.17-4.77-3.79-6.67-1.62-1.91-3.6-3.44-5.93-4.59-2.33-1.15-5.03-1.73-8.11-1.73-2.69 0-5.17.54-7.47 1.61-2.29 1.07-4.3 2.54-6.04 4.41-1.74 1.87-3.16 4.07-4.26 6.61-1.11 2.54-1.82 5.32-2.14 8.34h39.45zm-37.06 15.67c1.27 2.58 2.9 4.77 4.88 6.55 1.99 1.79 4.21 3.14 6.67 4.05 2.46.92 5.05 1.37 7.74 1.37 4.29 0 7.97-.79 11.03-2.38 3.06-1.59 5.86-3.7 8.4-6.32l5.72 5.12c-3.1 3.5-6.63 6.3-10.6 8.4-3.98 2.1-8.9 3.16-14.78 3.16-4.21 0-8.18-.77-11.92-2.32-3.74-1.55-7-3.73-9.8-6.55-2.8-2.82-5.03-6.22-6.68-10.19-1.65-3.97-2.47-8.34-2.47-13.11 0-4.45.73-8.64 2.2-12.57 1.47-3.93 3.52-7.35 6.14-10.25 2.62-2.9 5.74-5.19 9.35-6.85 3.62-1.67 7.57-2.5 11.86-2.5 4.53 0 8.58.86 12.16 2.56 3.57 1.71 6.59 4.03 9.06 6.97 2.46 2.94 4.33 6.4 5.6 10.37 1.27 3.97 1.91 8.22 1.91 12.75v1.31c0 .48-.04 1-.12 1.55h-48.74c.32 3.33 1.11 6.29 2.39 8.88zM1673.51 387.14c-1.15-2.92-2.72-5.43-4.71-7.53a20.485 20.485 0 0 0-6.91-4.8c-2.62-1.1-5.41-1.66-8.34-1.66-2.86 0-5.63.57-8.28 1.72a23.265 23.265 0 0 0-7.15 4.81c-2.11 2.06-3.77 4.54-5 7.47-1.23 2.93-1.85 6.17-1.85 9.72 0 3.56.62 6.82 1.85 9.78 1.23 2.97 2.9 5.48 5 7.53 2.11 2.06 4.49 3.66 7.15 4.8 2.66 1.15 5.42 1.72 8.28 1.72 2.94 0 5.74-.53 8.4-1.6s4.96-2.61 6.91-4.62c1.94-2.01 3.5-4.51 4.65-7.47 1.15-2.97 1.72-6.3 1.72-10.02 0-3.64-.58-6.92-1.72-9.84zm8.64 23.31c-1.67 3.97-3.87 7.33-6.61 10.07s-5.88 4.85-9.41 6.32c-3.54 1.47-7.17 2.21-10.9 2.21-2.86 0-5.48-.36-7.87-1.07-2.38-.72-4.53-1.67-6.43-2.86a27.599 27.599 0 0 1-5.19-4.17 36.92 36.92 0 0 1-4.11-5.01v11.8h-9.18v-87h9.18v37.78c1.27-1.83 2.68-3.58 4.23-5.24 1.55-1.67 3.28-3.12 5.19-4.35 1.9-1.23 4.03-2.22 6.37-2.98 2.34-.75 4.95-1.13 7.81-1.13 3.65 0 7.25.72 10.78 2.15 3.53 1.43 6.69 3.51 9.47 6.25 2.78 2.74 5.01 6.1 6.67 10.07 1.67 3.98 2.5 8.5 2.5 13.59 0 5.08-.83 9.61-2.5 13.58z" class="fil0"></path></g></g></svg>